<svg width="90" height="91" viewBox="0 0 90 91" fill="none" xmlns="http://www.w3.org/2000/svg">
<path d="M75.6667 58L88.3334 45.3333L75.6667 32.6667V14.6667H57.6667L45.0001 2L32.3334 14.6667H14.3334V32.6667L1.66675 45.3333L14.3334 58V76H32.3334L45.0001 88.6667L57.6667 76H75.6667V58Z" fill="#F2DFD5" stroke="black" stroke-width="3" stroke-linejoin="round"/>
<path d="M27.8002 37.6V40.6666H20.6002V44H27.4002V47.0666H20.6002V53.2H17.1335V37.6H27.8002Z" fill="black"/>
<path d="M43.4001 42.6666C43.4001 45.2 42.4667 46.8 40.4667 47.4666L44.3334 53.0666H40.0667L36.6001 48.1333H34.2001V53.0666H30.7334V37.6H36.6001C39.0001 37.6 40.7334 38 41.8001 38.8C42.8667 39.6 43.4001 40.9333 43.4001 42.6666ZM39.1334 44.5333C39.5334 44.1333 39.8001 43.6 39.8001 42.6666C39.8001 41.8666 39.5334 41.2 39.1334 40.9333C38.7334 40.6666 37.9334 40.5333 36.8667 40.5333H34.3334V45.0666H36.8667C37.9334 45.2 38.7334 44.9333 39.1334 44.5333Z" fill="black"/>
<path d="M58.0667 37.6V40.6666H50.3334V43.8666H57.2667V46.8H50.3334V50H58.3334V53.0666H46.8667V37.6H58.0667Z" fill="black"/>
<path d="M72.6001 37.6V40.6666H64.8668V43.8666H71.8002V46.8H64.8668V50H72.8668V53.0666H61.4001V37.6H72.6001Z" fill="black"/>
</svg>
