<svg width="76" height="76" viewBox="0 0 76 76" fill="none" xmlns="http://www.w3.org/2000/svg">
<path d="M38 74.2222C57.9436 74.2222 74.1111 58.0547 74.1111 38.1111C74.1111 18.1675 57.9436 2 38 2C18.0564 2 1.88892 18.1675 1.88892 38.1111C1.88892 58.0547 18.0564 74.2222 38 74.2222Z" fill="white" stroke="black" stroke-width="3" stroke-miterlimit="10"/>
<path d="M38 6.44446V9.8889" stroke="black" stroke-width="3" stroke-miterlimit="10"/>
<path d="M38 66.3334V69.7778" stroke="black" stroke-width="3" stroke-miterlimit="10"/>
<path d="M6.33325 38.1111H9.7777" stroke="black" stroke-width="3" stroke-miterlimit="10"/>
<path d="M66.2222 38.1111H69.6666" stroke="black" stroke-width="3" stroke-miterlimit="10"/>
<path d="M60.3333 15.7778L58 18.1111" stroke="black" stroke-width="3" stroke-miterlimit="10"/>
<path d="M18.0001 58.1111L15.6667 60.4444" stroke="black" stroke-width="3" stroke-miterlimit="10"/>
<path d="M15.6667 15.7778L18.0001 18.1111" stroke="black" stroke-width="3" stroke-miterlimit="10"/>
<path d="M58 58.1111L60.3333 60.4444" stroke="black" stroke-width="3" stroke-miterlimit="10"/>
<path d="M38 15.7778V38.1111H60.3333" stroke="black" stroke-width="3" stroke-miterlimit="10"/>
<path d="M38 38.1111L25.1111 51" stroke="black" stroke-width="3" stroke-miterlimit="10"/>
</svg>
