<svg width="76" height="77" viewBox="0 0 76 77" fill="none" xmlns="http://www.w3.org/2000/svg">
<path d="M31.7334 74.5333H8.00007C4.5334 74.5333 1.7334 71.7333 1.7334 68.2667V44.5333C1.7334 41.0667 4.5334 38.2667 8.00007 38.2667H31.6001C35.0667 38.2667 37.8667 41.0667 37.8667 44.5333V68.1333C38.0001 71.7333 35.2001 74.5333 31.7334 74.5333Z" fill="#E45543" stroke="black" stroke-width="3" stroke-miterlimit="10" stroke-linejoin="round"/>
<path d="M68 74.5333H44.2667C40.8 74.5333 38 71.7333 38 68.2667V44.5333C38 41.0667 40.8 38.2667 44.2667 38.2667H67.8667C71.3333 38.2667 74.1333 41.0667 74.1333 44.5333V68.1333C74.2667 71.7333 71.4667 74.5333 68 74.5333Z" fill="#8BC648" stroke="black" stroke-width="3" stroke-miterlimit="10" stroke-linejoin="round"/>
<path d="M49.8667 38.2667H26.1334C22.6667 38.2667 19.8667 35.4667 19.8667 32V8.26667C19.8667 4.8 22.6667 2 26.1334 2H49.7334C53.2 2 56 4.8 56 8.26667V31.8667C56.1334 35.4667 53.3334 38.2667 49.8667 38.2667Z" fill="#F0C419" stroke="black" stroke-width="3" stroke-miterlimit="10" stroke-linejoin="round"/>
<path d="M25.7334 66L24.0001 61.8667H16.0001L14.2667 66H9.7334L18.0001 46.8H22.0001L30.2667 66H25.7334ZM19.8667 52.5333L17.4667 58.1333H22.2667L19.8667 52.5333Z" fill="black"/>
<path d="M38.8001 29.7333H30.4001V10.5333H37.8668C39.2002 10.5333 40.2668 10.6667 41.2002 10.9333C42.1335 11.2 42.8002 11.6 43.3335 12.1333C44.1335 13.0667 44.6668 14.2667 44.6668 15.4667C44.6668 16.9333 44.1335 18.1333 43.2002 18.8C42.9335 19.0667 42.6668 19.2 42.5335 19.3333C42.4002 19.3333 42.1335 19.4667 41.8668 19.6C43.0668 19.8667 44.0002 20.4 44.6668 21.2C45.3335 22 45.7335 23.0667 45.7335 24.2667C45.7335 25.6 45.3335 26.8 44.4002 27.8667C43.2002 29.0667 41.3335 29.7333 38.8001 29.7333ZM34.6668 18.2667H36.6668C37.8668 18.2667 38.8002 18.1333 39.3335 17.8667C39.8668 17.6 40.1335 17.0667 40.1335 16.2667C40.1335 15.4667 39.8668 14.8 39.3335 14.5333C38.8002 14.2667 37.8668 14.1333 36.6668 14.1333H34.6668V18.2667ZM34.6668 26.1333H37.6002C38.8002 26.1333 39.7335 26 40.4002 25.7333C41.0668 25.4667 41.3335 24.8 41.3335 24C41.3335 23.0667 41.0668 22.5333 40.4002 22.2667C39.7335 22 38.6668 21.8667 37.3335 21.8667H34.8001V26.1333H34.6668Z" fill="black"/>
<path d="M57.0669 62.2667C59.2002 62.2667 60.9335 61.4667 62.2669 59.7333L65.0669 62.5333C62.9335 64.9333 60.2669 66.2667 57.3335 66.2667C54.4002 66.2667 52.0002 65.3333 50.0002 63.4667C48.1335 61.6 47.2002 59.2 47.2002 56.4C47.2002 53.6 48.1335 51.2 50.1335 49.3333C52.1335 47.4667 54.4002 46.5333 57.3335 46.5333C60.5335 46.5333 63.0669 47.7333 65.2002 50.1333L62.5335 53.2C61.2002 51.4667 59.4669 50.6667 57.4669 50.6667C55.8669 50.6667 54.5335 51.2 53.3335 52.2667C52.1335 53.3333 51.6002 54.6667 51.6002 56.5333C51.6002 58.2667 52.1335 59.7333 53.2002 60.8C54.2669 61.7333 55.6002 62.2667 57.0669 62.2667Z" fill="black"/>
</svg>
