<svg width="81" height="71" viewBox="0 0 81 71" fill="none" xmlns="http://www.w3.org/2000/svg">
<g clip-path="url(#clip0)">
<path d="M52.4 12.8999V40.3999H79.9L52.4 12.8999Z" fill="#F9B231"/>
<path d="M79.9 12.8999V40.3999H52.4L79.9 12.8999Z" fill="#F39100"/>
<path d="M79.9 26.7V54.2H52.4L79.9 26.7Z" fill="#F9B231"/>
<path d="M22.7 0H0V54.2H22.7V0Z" fill="#34A9E1"/>
<path d="M40.4 17.9L58 0H80.8L40.4 40.2V17.9Z" fill="#34A9E1"/>
<path d="M40.4 17.9L22.7 0H0L40.4 40.2V17.9Z" fill="#0190C9"/>
<path d="M0.900024 60.5999V59.2999H4.40002L4.60002 61C4.90002 60.4 5.30002 60 5.80002 59.7C6.30002 59.4 6.80002 59.2 7.40002 59.2C7.60002 59.2 7.70002 59.2 7.90002 59.2C8.10002 59.2 8.20002 59.1999 8.30002 59.2999L8.00002 61.0999L6.80002 61C6.30002 61 5.80002 61.1 5.40002 61.4C5.00002 61.7 4.70002 62 4.50002 62.5V69L6.20002 69.3V70.5999H0.900024V69.3L2.60002 69V61L0.900024 60.5999Z" fill="black"/>
<path d="M17.7 68.8998C17.3 69.4998 16.9 69.9998 16.3 70.2998C15.7 70.5998 15.1 70.7998 14.4 70.7998C13.2 70.7998 12.2 70.3998 11.5 69.5998C10.8 68.7998 10.5 67.5998 10.5 65.8998V60.8998L9.20001 60.5998V59.2998H10.5H12.5V65.9998C12.5 67.1998 12.7 67.9998 13 68.4998C13.4 68.9998 13.9 69.1998 14.7 69.1998C15.4 69.1998 16 69.0998 16.5 68.7998C17 68.4998 17.3 68.0998 17.6 67.4998V60.9998L16.1 60.6998V59.3998H17.6H19.6V68.9998L20.9 69.2998V70.5998H17.8L17.7 68.8998Z" fill="black"/>
<path d="M31.2 62.9H29.7L29.4 61.6C29.2 61.4 28.8 61.2 28.5 61C28.1 60.9 27.7 60.8 27.2 60.8C26.5 60.8 25.9 61 25.6 61.3C25.2 61.6 25.1 62 25.1 62.5C25.1 62.9 25.3 63.3 25.6 63.5C25.9 63.7 26.5 64 27.5 64.2C28.9 64.5 30 64.9 30.7 65.4C31.4 65.9 31.7 66.6 31.7 67.5C31.7 68.5 31.3 69.3 30.5 69.9C29.7 70.5 28.6 70.8 27.3 70.8C26.4 70.8 25.7 70.7 25 70.5C24.3 70.3 23.7 70 23.2 69.6V67H24.7L25.1 68.5C25.3 68.7 25.7 68.9 26.1 69C26.5 69.1 26.9 69.1 27.3 69.1C28 69.1 28.6 69 29 68.7C29.4 68.4 29.6 68 29.6 67.5C29.6 67.1 29.4 66.7 29.1 66.4C28.8 66.1 28.1 65.9 27.2 65.6C25.8 65.3 24.8 64.9 24.1 64.4C23.4 63.9 23.1 63.2 23.1 62.3C23.1 61.4 23.5 60.6 24.3 60C25.1 59.4 26.1 59 27.3 59C28.2 59 28.9 59.1 29.6 59.3C30.3 59.5 30.8 59.8 31.3 60.2L31.2 62.9Z" fill="black"/>
<path d="M40.8 70.6C40.7 70.3 40.7 70 40.7 69.8C40.7 69.6 40.6 69.3 40.6 69.1C40.2 69.6 39.7 70 39.1 70.4C38.5 70.8 37.9 70.9 37.2 70.9C36 70.9 35.1 70.6 34.5 70C33.9 69.4 33.6 68.6 33.6 67.6C33.6 66.5 34 65.7 34.9 65.1C35.8 64.5 36.9 64.2 38.4 64.2H40.5V62.9C40.5 62.2 40.3 61.7 39.9 61.3C39.5 60.9 38.9 60.7 38.2 60.7C37.7 60.7 37.2 60.8 36.8 60.9C36.4 61 36.1 61.2 35.9 61.4L35.7 62.6H34.1V60.4C34.6 60 35.2 59.7 36 59.4C36.8 59.1 37.5 59 38.4 59C39.7 59 40.7 59.3 41.5 60C42.3 60.7 42.7 61.6 42.7 62.8V68.2C42.7 68.3 42.7 68.5 42.7 68.6C42.7 68.7 42.7 68.9 42.7 69L43.5 69.1V70.4H40.8V70.6ZM37.5 69.1C38.2 69.1 38.8 68.9 39.4 68.6C40 68.3 40.4 67.9 40.6 67.4V65.6H38.4C37.6 65.6 36.9 65.8 36.4 66.2C35.9 66.6 35.7 67.1 35.7 67.6C35.7 68.1 35.9 68.5 36.2 68.7C36.4 68.9 36.9 69.1 37.5 69.1Z" fill="black"/>
<path d="M44.9001 55.6999V54.3999H48.6V63.7999H49.9001L52.3 60.7999L51.3 60.6999V59.3999H56V60.6999L54.6 60.9999L51.6 64.4999L55.2001 69.0999L56.5 69.3999V70.6999H51.8V69.3999L52.8 69.2999L49.8 65.5999H48.5V68.9999L50.2001 69.2999V70.5999H44.8V69.2999L46.5 68.9999V55.9999L44.9001 55.6999Z" fill="black"/>
<path d="M58.1 64.7999C58.1 63.0999 58.5 61.7999 59.4 60.6999C60.3 59.5999 61.5 59.0999 63.1 59.0999C64.6 59.0999 65.9 59.5999 66.8 60.6999C67.7 61.7999 68.2 63.0999 68.2 64.7999V64.9999C68.2 66.6999 67.7 67.9999 66.9 69.0999C66 70.1999 64.8 70.6999 63.2 70.6999C61.6 70.6999 60.4 70.1999 59.5 69.0999C58.6 67.9999 58.2 66.6999 58.2 64.9999V64.7999H58.1ZM60.1 65.0999C60.1 66.2999 60.4 67.2999 60.9 67.9999C61.4 68.7999 62.1 69.1999 63.1 69.1999C64.1 69.1999 64.8 68.7999 65.3 67.9999C65.8 67.1999 66.1 66.1999 66.1 65.0999V64.8999C66.1 63.6999 65.8 62.6999 65.3 61.9999C64.8 61.1999 64.1 60.7999 63.1 60.7999C62.1 60.7999 61.4 61.1999 60.9 61.9999C60.4 62.7999 60.2 63.7999 60.2 64.8999V65.0999H60.1Z" fill="black"/>
<path d="M73.7 60.5998L72.4 60.7998L74.7 67.1998L74.9 67.9998H75L75.2 67.1998L77.4 60.7998L76 60.5998V59.2998H80.3V60.5998L79.4 60.7998L75.6 70.5998H74.1L70.3 60.7998L69.4 60.5998V59.2998H73.7V60.5998Z" fill="black"/>
</g>
<defs>
<clipPath id="clip0">
<rect width="80.8" height="70.8" fill="white"/>
</clipPath>
</defs>
</svg>
